<svg class="{{ class }}" viewBox="0 0 33 33" fill="none" xmlns="http://www.w3.org/2000/svg">
<g clip-path="url(#clip0_14276_82788)">
<path d="M32.5 16.5916C32.5 7.75499 25.3366 0.591553 16.5 0.591553C7.66344 0.591553 0.5 7.75499 0.5 16.5916C0.5 24.5775 6.35094 31.1969 14 32.3972V21.2166H9.9375V16.5916H14V13.0666C14 9.05655 16.3888 6.84155 20.0434 6.84155C21.7934 6.84155 23.625 7.15405 23.625 7.15405V11.0916H21.6075C19.62 11.0916 19 12.325 19 13.5916V16.5916H23.4375L22.7281 21.2166H19V32.3972C26.6491 31.1969 32.5 24.5775 32.5 16.5916Z" fill="currentColor"/>
</g>
<defs>
<clipPath id="clip0_14276_82788">
<rect width="32" height="32" fill="currentColor" transform="translate(0.5 0.591553)"/>
</clipPath>
</defs>
</svg>
