<svg class="{{ class }}" viewBox="0 0 33 33" fill="currentColor" xmlns="http://www.w3.org/2000/svg">
<g clip-path="url(#clip0_14276_82791)">
<path fill-rule="evenodd" clip-rule="evenodd" d="M16.5002 1.25818C12.7018 1.26015 9.02801 2.60546 6.13566 5.05354C3.24331 7.50163 1.32104 10.8929 0.712563 14.6208C0.104085 18.3488 0.849073 22.1705 2.81433 25.4024C4.77959 28.6344 7.83696 31.0659 11.4397 32.2621C12.2346 32.4097 12.534 31.917 12.534 31.4982C12.534 31.0793 12.5181 29.8649 12.5128 28.5371C8.0617 29.4987 7.12115 26.6588 7.12115 26.6588C6.3952 24.8148 5.34602 24.33 5.34602 24.33C3.89412 23.3448 5.45466 23.3632 5.45466 23.3632C7.06287 23.4765 7.90804 25.0044 7.90804 25.0044C9.33345 27.436 11.6517 26.7326 12.5631 26.3216C12.7062 25.2916 13.1221 24.5908 13.5805 24.1931C10.0249 23.7926 6.28922 22.428 6.28922 16.3321C6.26718 14.7511 6.8572 13.2222 7.93718 12.0618C7.77292 11.6613 7.22447 10.0438 8.09349 7.84675C8.09349 7.84675 9.43677 7.41999 12.4942 9.47743C15.1167 8.76434 17.8837 8.76434 20.5062 9.47743C23.561 7.41999 24.9016 7.84675 24.9016 7.84675C25.7732 10.0386 25.2248 11.6561 25.0605 12.0618C26.1439 13.2224 26.7352 14.754 26.7111 16.3373C26.7111 22.4465 22.9675 23.7926 19.4066 24.1851C19.9789 24.6804 20.4903 25.6472 20.4903 27.133C20.4903 29.2616 20.4717 30.9739 20.4717 31.4982C20.4717 31.9223 20.7605 32.4176 21.5712 32.2621C25.1744 31.0657 28.2321 28.6338 30.1973 25.4013C32.1625 22.1688 32.9071 18.3466 32.298 14.6182C31.6888 10.8899 29.7656 7.49865 26.8723 5.05099C23.979 2.60332 20.3043 1.2589 16.5055 1.25818H16.5002Z" fill="currentColor"/>
<path d="M6.55909 24.1009C6.52464 24.1799 6.39747 24.2036 6.29414 24.1483C6.19081 24.093 6.11398 23.9902 6.15108 23.9086C6.18817 23.8269 6.31269 23.8058 6.41602 23.8612C6.51935 23.9165 6.59883 24.0219 6.55909 24.1009Z" fill="currentColor"/>
<path d="M7.20847 24.82C7.1536 24.8475 7.09083 24.8552 7.0309 24.8417C6.97096 24.8283 6.91761 24.7945 6.87994 24.7463C6.77661 24.6356 6.7554 24.4828 6.83489 24.4143C6.91437 24.3458 7.05745 24.3775 7.16078 24.4881C7.26411 24.5987 7.28795 24.7515 7.20847 24.82Z" fill="currentColor"/>
<path d="M7.83916 25.7343C7.74113 25.8028 7.5742 25.7343 7.48147 25.5973C7.45583 25.5727 7.43544 25.5432 7.42151 25.5106C7.40758 25.4781 7.40039 25.443 7.40039 25.4076C7.40039 25.3722 7.40758 25.3371 7.42151 25.3046C7.43544 25.272 7.45583 25.2425 7.48147 25.2179C7.5795 25.1521 7.74643 25.2179 7.83916 25.3523C7.93189 25.4866 7.93454 25.6658 7.83916 25.7343Z" fill="currentColor"/>
<path d="M8.6945 26.6193C8.60706 26.7168 8.42955 26.6904 8.28383 26.5587C8.13812 26.427 8.10366 26.2479 8.19109 26.153C8.27853 26.0582 8.45604 26.0845 8.60706 26.2136C8.75808 26.3427 8.78723 26.5245 8.6945 26.6193Z" fill="currentColor"/>
<path d="M9.89506 27.1357C9.85532 27.2595 9.67515 27.3148 9.49499 27.2622C9.31483 27.2095 9.19561 27.0619 9.23005 26.9355C9.26449 26.809 9.44731 26.7511 9.63012 26.809C9.81293 26.867 9.9295 27.0066 9.89506 27.1357Z" fill="currentColor"/>
<path d="M11.2038 27.2253C11.2038 27.3544 11.0554 27.465 10.8647 27.4676C10.6739 27.4703 10.5176 27.3649 10.5176 27.2358C10.5176 27.1067 10.6659 26.9961 10.8567 26.9935C11.0475 26.9908 11.2038 27.0936 11.2038 27.2253Z" fill="currentColor"/>
<path d="M12.4224 27.0224C12.4462 27.1515 12.3137 27.2859 12.123 27.3175C11.9322 27.3491 11.7653 27.2727 11.7415 27.1463C11.7176 27.0198 11.8554 26.8828 12.0408 26.8486C12.2263 26.8143 12.3985 26.8934 12.4224 27.0224Z" fill="currentColor"/>
</g>
<defs>
<clipPath id="clip0_14276_82791">
<rect width="32" height="32" fill="currentColor" transform="translate(0.5 0.591553)"/>
</clipPath>
</defs>
</svg>
