<svg class="{{ class }}" viewBox="0 0 19 19" fill="none" xmlns="http://www.w3.org/2000/svg">
<path fill-rule="evenodd" clip-rule="evenodd" d="M11.9569 4.35678C12.1322 4.17531 12.3418 4.03057 12.5736 3.93099C12.8054 3.83141 13.0548 3.779 13.307 3.77681C13.5593 3.77461 13.8095 3.82269 14.043 3.91822C14.2765 4.01375 14.4887 4.15484 14.6671 4.33323C14.8455 4.51163 14.9865 4.72377 15.0821 4.95727C15.1776 5.19077 15.2257 5.44096 15.2235 5.69324C15.2213 5.94553 15.1689 6.19484 15.0693 6.42665C14.9697 6.65846 14.825 6.86811 14.6435 7.04338L11.7935 9.89338C11.4372 10.2496 10.954 10.4497 10.4502 10.4497C9.9464 10.4497 9.46321 10.2496 9.10691 9.89338C8.92774 9.72033 8.68777 9.62458 8.43868 9.62674C8.18959 9.62891 7.95132 9.72882 7.77518 9.90495C7.59905 10.0811 7.49914 10.3194 7.49697 10.5685C7.49481 10.8175 7.59056 11.0575 7.76361 11.2367C8.47622 11.9491 9.44259 12.3493 10.4502 12.3493C11.4578 12.3493 12.4242 11.9491 13.1368 11.2367L15.9868 8.38668C16.679 7.66999 17.062 6.71011 17.0534 5.71376C17.0447 4.71741 16.6451 3.76432 15.9405 3.05977C15.236 2.35522 14.2829 1.95558 13.2865 1.94692C12.2902 1.93826 11.3303 2.32128 10.6136 3.01348L9.18861 4.43848C9.09788 4.52612 9.0255 4.63094 8.97571 4.74685C8.92593 4.86275 8.89972 4.98741 8.89862 5.11355C8.89753 5.23969 8.92156 5.36479 8.96933 5.48154C9.0171 5.59829 9.08764 5.70436 9.17684 5.79356C9.26603 5.88276 9.3721 5.9533 9.48885 6.00106C9.60561 6.04883 9.7307 6.07287 9.85684 6.07177C9.98298 6.07067 10.1076 6.04447 10.2235 5.99468C10.3394 5.94489 10.4443 5.87252 10.5319 5.78178L11.9569 4.35678ZM7.20691 9.10678C7.56321 8.75059 8.0464 8.55049 8.55021 8.55049C9.05402 8.55049 9.53721 8.75059 9.89351 9.10678C9.98114 9.19752 10.086 9.26989 10.2019 9.31968C10.3178 9.36947 10.4424 9.39567 10.5686 9.39677C10.6947 9.39787 10.8198 9.37383 10.9366 9.32606C11.0533 9.2783 11.1594 9.20776 11.2486 9.11856C11.3378 9.02936 11.4083 8.92329 11.4561 8.80654C11.5039 8.68979 11.5279 8.56469 11.5268 8.43855C11.5257 8.31241 11.4995 8.18775 11.4497 8.07185C11.3999 7.95594 11.3275 7.85112 11.2368 7.76348C10.5242 7.05109 9.55783 6.65089 8.55021 6.65089C7.54259 6.65089 6.57622 7.05109 5.86361 7.76348L3.01361 10.6135C2.65067 10.964 2.36118 11.3833 2.16203 11.8469C1.96287 12.3106 1.85804 12.8092 1.85366 13.3138C1.84927 13.8183 1.94542 14.3187 2.13649 14.7857C2.32756 15.2527 2.60972 15.677 2.96651 16.0338C3.3233 16.3906 3.74758 16.6727 4.21459 16.8638C4.68159 17.0549 5.18197 17.151 5.68654 17.1466C6.1911 17.1422 6.68973 17.0374 7.15335 16.8383C7.61696 16.6391 8.03627 16.3496 8.38681 15.9867L9.81181 14.5617C9.90254 14.474 9.97492 14.3692 10.0247 14.2533C10.0745 14.1374 10.1007 14.0128 10.1018 13.8866C10.1029 13.7605 10.0789 13.6354 10.0311 13.5186C9.98332 13.4019 9.91278 13.2958 9.82359 13.2066C9.73439 13.1174 9.62832 13.0469 9.51157 12.9991C9.39482 12.9513 9.26972 12.9273 9.14358 12.9284C9.01744 12.9295 8.89278 12.9557 8.77688 13.0055C8.66097 13.0553 8.55614 13.1276 8.46851 13.2184L7.04351 14.6434C6.86824 14.8249 6.65859 14.9696 6.42678 15.0692C6.19497 15.1688 5.94565 15.2212 5.69337 15.2234C5.44109 15.2256 5.1909 15.1775 4.9574 15.0819C4.7239 14.9864 4.51176 14.8453 4.33336 14.6669C4.15496 14.4885 4.01388 14.2764 3.91835 14.0429C3.82282 13.8094 3.77474 13.5592 3.77693 13.3069C3.77913 13.0546 3.83154 12.8053 3.93112 12.5735C4.0307 12.3417 4.17544 12.1321 4.35691 11.9568L7.20691 9.10678Z" fill="currentColor"/>
</svg>
