<svg class="{{ class }}" viewBox="0 0 19 19" fill="none" xmlns="http://www.w3.org/2000/svg">
<path d="M1.90332 5.58985L9.50047 9.38795L17.0976 5.58985C17.0695 5.10577 16.8574 4.65076 16.5047 4.31801C16.1519 3.98527 15.6854 3.79996 15.2005 3.80005H3.80047C3.31558 3.79996 2.849 3.98527 2.49629 4.31801C2.14358 4.65076 1.93144 5.10577 1.90332 5.58985Z" fill="currentColor"/>
<path d="M17.1004 7.71216L9.50039 11.5122L1.90039 7.71216V13.3001C1.90039 13.804 2.10057 14.2872 2.45689 14.6436C2.81321 14.9999 3.29648 15.2001 3.80039 15.2001H15.2004C15.7043 15.2001 16.1876 14.9999 16.5439 14.6436C16.9002 14.2872 17.1004 13.804 17.1004 13.3001V7.71216Z" fill="currentColor"/>
</svg>
