<svg width="33" height="33" viewBox="0 0 33 33" fill="none" xmlns="http://www.w3.org/2000/svg">
<path d="M16.8328 5.17258C20.6623 5.17258 21.1158 5.18937 22.6219 5.25656C24.0216 5.31814 24.7774 5.55329 25.2813 5.74925C25.9476 6.00679 26.4291 6.32032 26.9273 6.81861C27.4312 7.3225 27.7392 7.79839 27.9967 8.46464C28.1927 8.96853 28.4278 9.72996 28.4894 11.124C28.5566 12.6357 28.5734 13.0892 28.5734 16.9132C28.5734 20.7427 28.5566 21.1962 28.4894 22.7023C28.4278 24.102 28.1927 24.8578 27.9967 25.3617C27.7392 26.0279 27.4256 26.5094 26.9273 27.0077C26.4235 27.5116 25.9476 27.8195 25.2813 28.0771C24.7774 28.273 24.016 28.5082 22.6219 28.5698C21.1102 28.6369 20.6567 28.6537 16.8328 28.6537C13.0033 28.6537 12.5498 28.6369 11.0437 28.5698C9.644 28.5082 8.88817 28.273 8.38429 28.0771C7.71803 27.8195 7.23654 27.506 6.73825 27.0077C6.23437 26.5038 5.92643 26.0279 5.66889 25.3617C5.47294 24.8578 5.23779 24.0964 5.1762 22.7023C5.10902 21.1906 5.09222 20.7371 5.09222 16.9132C5.09222 13.0836 5.10902 12.6301 5.1762 11.124C5.23779 9.72436 5.47294 8.96853 5.66889 8.46464C5.92643 7.79839 6.23996 7.3169 6.73825 6.81861C7.24214 6.31472 7.71803 6.00679 8.38429 5.74925C8.88817 5.55329 9.6496 5.31814 11.0437 5.25656C12.5498 5.18937 13.0033 5.17258 16.8328 5.17258ZM16.8328 2.59155C12.9417 2.59155 12.4546 2.60835 10.9261 2.67553C9.40326 2.74272 8.35629 2.98906 7.44929 3.34179C6.50311 3.7113 5.70248 4.19839 4.90746 4.99902C4.10684 5.79404 3.61975 6.59466 3.25023 7.53525C2.89751 8.44785 2.65117 9.48921 2.58398 11.0121C2.5168 12.5461 2.5 13.0332 2.5 16.9244C2.5 20.8155 2.5168 21.3026 2.58398 22.831C2.65117 24.3539 2.89751 25.4009 3.25023 26.3079C3.61975 27.254 4.10684 28.0547 4.90746 28.8497C5.70248 29.6447 6.50311 30.1374 7.4437 30.5013C8.35629 30.854 9.39766 31.1004 10.9205 31.1676C12.449 31.2348 12.9361 31.2516 16.8272 31.2516C20.7183 31.2516 21.2054 31.2348 22.7339 31.1676C24.2567 31.1004 25.3037 30.854 26.2107 30.5013C27.1513 30.1374 27.9519 29.6447 28.7469 28.8497C29.542 28.0547 30.0346 27.254 30.3986 26.3135C30.7513 25.4009 30.9976 24.3595 31.0648 22.8366C31.132 21.3082 31.1488 20.8211 31.1488 16.93C31.1488 13.0388 31.132 12.5517 31.0648 11.0233C30.9976 9.50041 30.7513 8.45344 30.3986 7.54645C30.0458 6.59466 29.5588 5.79404 28.7581 4.99902C27.9631 4.20399 27.1625 3.7113 26.2219 3.34738C25.3093 2.99466 24.2679 2.74832 22.7451 2.68113C21.211 2.60835 20.7239 2.59155 16.8328 2.59155Z" fill="#5F5F5F"/>
<path d="M16.8326 9.56201C12.7679 9.56201 9.47021 12.8597 9.47021 16.9244C9.47021 20.9891 12.7679 24.2867 16.8326 24.2867C20.8973 24.2867 24.1949 20.9891 24.1949 16.9244C24.1949 12.8597 20.8973 9.56201 16.8326 9.56201ZM16.8326 21.7001C14.1956 21.7001 12.0568 19.5614 12.0568 16.9244C12.0568 14.2874 14.1956 12.1486 16.8326 12.1486C19.4696 12.1486 21.6083 14.2874 21.6083 16.9244C21.6083 19.5614 19.4696 21.7001 16.8326 21.7001Z" fill="#5F5F5F"/>
<path d="M26.2052 9.27082C26.2052 10.2226 25.4326 10.9896 24.4864 10.9896C23.5346 10.9896 22.7676 10.217 22.7676 9.27082C22.7676 8.31903 23.5402 7.552 24.4864 7.552C25.4326 7.552 26.2052 8.32463 26.2052 9.27082Z" fill="#5F5F5F"/>
</svg>
