<svg width="33" height="33" viewBox="0 0 33 33" fill="none" xmlns="http://www.w3.org/2000/svg">
<g clip-path="url(#clip0_14276_82787)">
<path d="M10.5634 29.5925C22.6389 29.5925 29.2437 19.588 29.2437 10.9122C29.2437 10.628 29.2437 10.3451 29.2245 10.0635C30.5094 9.13413 31.6185 7.98337 32.5 6.66513C31.3019 7.19633 30.0307 7.54453 28.7291 7.69808C30.0998 6.87767 31.1255 5.58713 31.6155 4.06672C30.3268 4.83154 28.9168 5.37049 27.4466 5.66033C26.4567 4.60776 25.1475 3.91078 23.7216 3.67724C22.2957 3.44369 20.8326 3.68661 19.5586 4.3684C18.2847 5.05018 17.271 6.13282 16.6743 7.44879C16.0777 8.76476 15.9314 10.2407 16.2581 11.6482C13.6479 11.5172 11.0943 10.8389 8.76327 9.65713C6.4322 8.47539 4.37569 6.81667 2.7272 4.78864C1.88764 6.23397 1.6305 7.94495 2.00813 9.57321C2.38577 11.2015 3.36979 12.6246 4.75984 13.5528C3.71498 13.5222 2.69286 13.2403 1.78 12.731V12.8142C1.78041 14.33 2.30513 15.799 3.26516 16.9721C4.22519 18.1451 5.56141 18.9499 7.0472 19.2501C6.08064 19.5137 5.0665 19.5523 4.08272 19.3627C4.50242 20.6672 5.31924 21.8078 6.41899 22.6253C7.51873 23.4428 8.84644 23.8962 10.2165 23.9221C8.85525 24.9921 7.29642 25.7831 5.62917 26.2501C3.96191 26.717 2.21895 26.8507 0.5 26.6434C3.50244 28.5701 6.9959 29.5921 10.5634 29.5874" fill="#5F5F5F"/>
</g>
<defs>
<clipPath id="clip0_14276_82787">
<rect width="32" height="32" fill="white" transform="translate(0.5 0.591553)"/>
</clipPath>
</defs>
</svg>
