<svg width="33" height="33" viewBox="0 0 33 33" fill="none" xmlns="http://www.w3.org/2000/svg">
<g clip-path="url(#clip0_14276_82789)">
<path d="M31.8627 8.83885C31.6817 8.15807 31.3252 7.53674 30.8287 7.03706C30.3322 6.53737 29.7132 6.17685 29.0336 5.99158C26.5317 5.31885 16.5317 5.31885 16.5317 5.31885C16.5317 5.31885 6.53174 5.31885 4.02992 5.99158C3.35031 6.17685 2.73128 6.53737 2.23479 7.03706C1.73829 7.53674 1.38175 8.15807 1.20083 8.83885C0.531738 11.3516 0.531738 16.5916 0.531738 16.5916C0.531738 16.5916 0.531738 21.8316 1.20083 24.3443C1.38175 25.0251 1.73829 25.6464 2.23479 26.1461C2.73128 26.6458 3.35031 27.0063 4.02992 27.1916C6.53174 27.8643 16.5317 27.8643 16.5317 27.8643C16.5317 27.8643 26.5317 27.8643 29.0336 27.1916C29.7132 27.0063 30.3322 26.6458 30.8287 26.1461C31.3252 25.6464 31.6817 25.0251 31.8627 24.3443C32.5317 21.8316 32.5317 16.5916 32.5317 16.5916C32.5317 16.5916 32.5317 11.3516 31.8627 8.83885Z" fill="#5F5F5F"/>
<path d="M13.2588 21.3497V11.8334L21.6224 16.5916L13.2588 21.3497Z" fill="#F7F7F7"/>
</g>
<defs>
<clipPath id="clip0_14276_82789">
<rect width="32" height="32" fill="white" transform="translate(0.5 0.591553)"/>
</clipPath>
</defs>
</svg>
