<svg width="166" height="40" viewBox="0 0 166 40" fill="none" xmlns="http://www.w3.org/2000/svg">
<g clip-path="url(#clip0_15013_68249)">
<path fill-rule="evenodd" clip-rule="evenodd" d="M30.8555 17.3124C30.8555 16.9091 30.9415 16.5491 31.1135 16.2384C31.2841 15.9264 31.5108 15.6724 31.7921 15.4698C32.0721 15.2678 32.3875 15.1144 32.7381 15.0111C33.0875 14.9084 33.4395 14.8564 33.7948 14.8564C34.1488 14.8564 34.5021 14.9084 34.8528 15.0111C35.2015 15.1144 35.5168 15.2678 35.7968 15.4698C36.0788 15.6724 36.3048 15.9264 36.4768 16.2384C36.6488 16.5491 36.7341 16.9091 36.7341 17.3124V22.6224C36.7341 23.0344 36.6488 23.3958 36.4768 23.7018C36.3048 24.0091 36.0788 24.2618 35.7968 24.4644C35.5168 24.6678 35.2015 24.8218 34.8528 24.9238C34.5021 25.0264 34.1488 25.0778 33.7948 25.0778C33.4395 25.0778 33.0875 25.0264 32.7381 24.9238C32.3875 24.8218 32.0721 24.6678 31.7921 24.4644C31.5108 24.2618 31.2841 24.0091 31.1135 23.7018C30.9415 23.3958 30.8555 23.0344 30.8555 22.6224V17.3124ZM32.5428 22.6251C32.5428 22.9711 32.7355 23.2291 32.9715 23.3931C33.2061 23.5584 33.4841 23.6458 33.8048 23.6458C34.1241 23.6458 34.4035 23.5584 34.6388 23.3931C34.8728 23.2291 35.0068 22.9711 35.0068 22.6251V17.3151C35.0068 16.9678 34.8728 16.7104 34.6388 16.5464C34.4035 16.3818 34.1241 16.2711 33.8048 16.2711C33.4841 16.2711 33.2061 16.3818 32.9715 16.5464C32.7355 16.7104 32.5428 16.9678 32.5428 17.3151V22.6251Z" fill="white"/>
<path fill-rule="evenodd" clip-rule="evenodd" d="M27.8158 14.8458V19.1583H25.1266V14.8458H23.6558V25.0833H25.1266V20.7692H27.8158V25.0833H29.3983V14.8458H27.8158Z" fill="white"/>
<path fill-rule="evenodd" clip-rule="evenodd" d="M43.6925 14.8458H37.855V16.3517H40.0125L39.9875 25.0833H41.5391V16.3517H43.6925V14.8458Z" fill="white"/>
<path fill-rule="evenodd" clip-rule="evenodd" d="M54.5196 23.9724H66.3996L59.2963 15.9737L52.2243 7.97503L45.1509 0.000366211H9.61625L16.6882 7.97503H4.78158L11.8549 15.9737L11.9096 16.0277H0.000244141L7.10158 24.0264L14.1776 32.025L21.2502 40.0004H56.7849L49.7089 32.025L49.6569 31.947H61.5656L54.5196 23.9724ZM33.1996 33.291C25.2656 33.291 18.8342 27.3404 18.8342 20.001C18.8342 12.659 25.2656 6.70837 33.1996 6.70837C41.1342 6.70837 47.5662 12.659 47.5662 20.001C47.5662 27.3404 41.1342 33.291 33.1996 33.291Z" fill="white"/>
</g>
<g clip-path="url(#clip1_15013_68249)">
<path fill-rule="evenodd" clip-rule="evenodd" d="M82.099 0.420776V3.74661H78.8315V0.420776H76.9873V8.56328H78.8315V5.20411H82.099V8.56328H83.944V0.420776H82.099Z" fill="white"/>
<path fill-rule="evenodd" clip-rule="evenodd" d="M87.5989 8.6878C87.3095 8.6878 87.0422 8.64447 86.7962 8.55713C86.5495 8.4698 86.3349 8.33447 86.1522 8.15247C85.9708 7.97047 85.8282 7.73713 85.7255 7.45247C85.6229 7.1678 85.5715 6.83247 85.5715 6.44513V2.60713H87.2115V6.21713C87.2115 6.6118 87.2989 6.9098 87.4735 7.11113C87.6482 7.31247 87.9062 7.41247 88.2482 7.41247C88.5969 7.41247 88.8902 7.30447 89.1295 7.0878C89.3689 6.8718 89.4882 6.5438 89.4882 6.10313V2.60713H91.1289V8.56313H89.4882V7.62913C89.3369 7.93313 89.1075 8.18513 88.7995 8.3858C88.4929 8.58713 88.0922 8.6878 87.5989 8.6878ZM92.7225 2.6074H94.3745V3.51873C94.5252 3.23807 94.7552 2.9934 95.0625 2.78407C95.3699 2.5754 95.7472 2.4714 96.1952 2.4714C96.5905 2.4714 96.9305 2.55473 97.2139 2.7214C97.4992 2.88807 97.7132 3.15007 97.8579 3.5074C98.1005 3.14273 98.4012 2.8794 98.7572 2.71607C99.1145 2.55273 99.4825 2.4714 99.8619 2.4714C100.135 2.4714 100.392 2.51473 100.631 2.60207C100.87 2.6894 101.081 2.8234 101.263 3.00673C101.437 3.19607 101.574 3.4354 101.673 3.7234C101.771 4.01207 101.821 4.35407 101.821 4.74807V8.56273H100.181V4.92207C100.181 4.53407 100.099 4.25273 99.9359 4.0774C99.7725 3.90207 99.5425 3.81473 99.2472 3.81473C98.9285 3.81473 98.6565 3.9154 98.4325 4.11673C98.2085 4.31873 98.0972 4.62473 98.0972 5.03607V8.56273H96.4579V4.92207C96.4579 4.53407 96.3745 4.25273 96.2072 4.0774C96.0399 3.90207 95.8119 3.81473 95.5232 3.81473C95.2052 3.81473 94.9332 3.9154 94.7092 4.11673C94.4859 4.31873 94.3745 4.62473 94.3745 5.03607V8.56273H92.7225V2.6074ZM105.463 7.54947C105.828 7.54947 106.133 7.45547 106.379 7.2688C106.626 7.0808 106.75 6.8188 106.75 6.4828V5.97813H106.112C105.634 5.97813 105.262 6.03947 104.997 6.16147C104.73 6.28413 104.597 6.50547 104.597 6.8268C104.597 7.0488 104.667 7.22413 104.803 7.35413C104.939 7.48413 105.16 7.54947 105.463 7.54947ZM104.974 8.68813C104.7 8.68813 104.444 8.65347 104.205 8.58547C103.966 8.5168 103.755 8.4108 103.573 8.2668C103.391 8.1228 103.247 7.9388 103.141 7.71413C103.033 7.4908 102.981 7.2228 102.981 6.91147C102.981 6.5628 103.057 6.2668 103.209 6.02347C103.361 5.7808 103.573 5.58347 103.846 5.43147C104.119 5.27947 104.447 5.17013 104.825 5.10147C105.205 5.0328 105.623 4.9988 106.078 4.9988H106.75V4.75947C106.75 4.4028 106.683 4.13147 106.551 3.94547C106.418 3.75947 106.161 3.6668 105.782 3.6668C105.456 3.6668 105.215 3.7428 105.059 3.8948C104.903 4.04613 104.807 4.25147 104.769 4.5088H103.209C103.231 4.16013 103.317 3.85613 103.465 3.5988C103.613 3.34013 103.805 3.12747 104.04 2.9608C104.275 2.79413 104.551 2.67013 104.865 2.5908C105.18 2.5108 105.52 2.47147 105.885 2.47147C106.249 2.47147 106.583 2.5108 106.887 2.5908C107.19 2.67013 107.456 2.79747 107.683 2.97147C107.903 3.1468 108.075 3.3748 108.197 3.6548C108.317 3.93613 108.378 4.27747 108.378 4.68013V8.5628H106.773V7.84547C106.597 8.0888 106.371 8.28947 106.095 8.4488C105.818 8.6088 105.444 8.68813 104.974 8.68813ZM109.928 2.6074H111.579V3.55273C111.73 3.25673 111.966 3.00207 112.284 2.7894C112.603 2.57807 113.013 2.4714 113.514 2.4714C113.81 2.4714 114.08 2.51673 114.322 2.6074C114.566 2.69873 114.778 2.8354 114.96 3.0174C115.135 3.2074 115.271 3.44873 115.37 3.74007C115.469 4.03273 115.518 4.37607 115.518 4.77073V8.56273H113.867V5.01007C113.867 4.60007 113.783 4.29873 113.616 4.1054C113.45 3.9114 113.184 3.81473 112.819 3.81473C112.463 3.81473 112.166 3.9234 111.931 4.1394C111.696 4.3554 111.579 4.68407 111.579 5.12407V8.56273H109.928V2.6074ZM117.111 8.56267H118.751V2.60733H117.111V8.56267ZM117.921 1.79933C117.654 1.79933 117.432 1.714 117.254 1.54267C117.075 1.37267 116.987 1.158 116.987 0.9C116.987 0.641333 117.075 0.427333 117.254 0.256667C117.432 0.0853333 117.654 0 117.921 0C118.185 0 118.409 0.0853333 118.592 0.256667C118.774 0.427333 118.865 0.641333 118.865 0.9C118.865 1.158 118.774 1.37267 118.592 1.54267C118.409 1.714 118.185 1.79933 117.921 1.79933ZM122.577 8.67673C121.947 8.67673 121.469 8.51873 121.143 8.20407C120.816 7.8894 120.653 7.42007 120.653 6.7974V3.78073H119.891V2.6074H120.653V1.3214H122.293V2.6074H123.545V3.78073H122.293V6.6494C122.293 6.88473 122.348 7.0614 122.457 7.17873C122.567 7.2974 122.733 7.3554 122.953 7.3554C123.074 7.3554 123.187 7.34673 123.289 7.3274C123.392 7.30807 123.488 7.28007 123.579 7.2414V8.51673C123.465 8.55473 123.325 8.5914 123.158 8.6254C122.991 8.6594 122.797 8.67673 122.577 8.67673ZM126.984 7.54947C127.348 7.54947 127.654 7.45547 127.9 7.2688C128.147 7.0808 128.271 6.8188 128.271 6.4828V5.97813H127.633C127.154 5.97813 126.782 6.03947 126.517 6.16147C126.25 6.28413 126.118 6.50547 126.118 6.8268C126.118 7.0488 126.187 7.22413 126.323 7.35413C126.46 7.48413 126.68 7.54947 126.984 7.54947ZM126.494 8.68813C126.221 8.68813 125.965 8.65347 125.725 8.58547C125.486 8.5168 125.276 8.4108 125.094 8.2668C124.912 8.1228 124.767 7.9388 124.661 7.71413C124.554 7.4908 124.502 7.2228 124.502 6.91147C124.502 6.5628 124.578 6.2668 124.73 6.02347C124.881 5.7808 125.094 5.58347 125.367 5.43147C125.64 5.27947 125.967 5.17013 126.346 5.10147C126.726 5.0328 127.143 4.9988 127.598 4.9988H128.271V4.75947C128.271 4.4028 128.204 4.13147 128.071 3.94547C127.938 3.75947 127.682 3.6668 127.303 3.6668C126.976 3.6668 126.735 3.7428 126.58 3.8948C126.424 4.04613 126.328 4.25147 126.289 4.5088H124.73C124.752 4.16013 124.837 3.85613 124.986 3.5988C125.134 3.34013 125.326 3.12747 125.56 2.9608C125.796 2.79413 126.071 2.67013 126.386 2.5908C126.7 2.5108 127.04 2.47147 127.406 2.47147C127.77 2.47147 128.104 2.5108 128.408 2.5908C128.71 2.67013 128.976 2.79747 129.204 2.97147C129.424 3.1468 129.595 3.3748 129.717 3.6548C129.838 3.93613 129.899 4.27747 129.899 4.68013V8.5628H128.294V7.84547C128.118 8.0888 127.892 8.28947 127.616 8.4488C127.338 8.6088 126.965 8.68813 126.494 8.68813ZM131.447 2.6074H133.098V3.74673C133.288 3.34407 133.535 3.04007 133.838 2.8354C134.142 2.63073 134.536 2.52407 135.022 2.51673V4.0534C134.407 4.04607 133.933 4.15607 133.599 4.38407C133.265 4.61207 133.098 5.01007 133.098 5.5794V8.56273H131.447V2.6074ZM136.286 8.56267H137.926V2.60733H136.286V8.56267ZM137.095 1.79933C136.828 1.79933 136.607 1.714 136.429 1.54267C136.249 1.37267 136.161 1.158 136.161 0.9C136.161 0.641333 136.249 0.427333 136.429 0.256667C136.607 0.0853333 136.828 0 137.095 0C137.36 0 137.584 0.0853333 137.765 0.256667C137.948 0.427333 138.04 0.641333 138.04 0.9C138.04 1.158 137.948 1.37267 137.765 1.54267C137.584 1.714 137.36 1.79933 137.095 1.79933ZM141.672 7.54947C142.036 7.54947 142.342 7.45547 142.588 7.2688C142.835 7.0808 142.959 6.8188 142.959 6.4828V5.97813H142.321C141.842 5.97813 141.47 6.03947 141.205 6.16147C140.939 6.28413 140.806 6.50547 140.806 6.8268C140.806 7.0488 140.875 7.22413 141.012 7.35413C141.148 7.48413 141.368 7.54947 141.672 7.54947ZM141.182 8.68813C140.909 8.68813 140.653 8.65347 140.413 8.58547C140.174 8.5168 139.964 8.4108 139.782 8.2668C139.6 8.1228 139.455 7.9388 139.349 7.71413C139.242 7.4908 139.19 7.2228 139.19 6.91147C139.19 6.5628 139.266 6.2668 139.418 6.02347C139.57 5.7808 139.782 5.58347 140.055 5.43147C140.328 5.27947 140.655 5.17013 141.034 5.10147C141.414 5.0328 141.831 4.9988 142.286 4.9988H142.959V4.75947C142.959 4.4028 142.892 4.13147 142.759 3.94547C142.626 3.75947 142.37 3.6668 141.991 3.6668C141.664 3.6668 141.424 3.7428 141.268 3.8948C141.112 4.04613 141.016 4.25147 140.977 4.5088H139.418C139.44 4.16013 139.525 3.85613 139.674 3.5988C139.822 3.34013 140.014 3.12747 140.249 2.9608C140.484 2.79413 140.759 2.67013 141.074 2.5908C141.388 2.5108 141.728 2.47147 142.094 2.47147C142.458 2.47147 142.792 2.5108 143.096 2.5908C143.398 2.67013 143.664 2.79747 143.892 2.97147C144.112 3.1468 144.283 3.3748 144.405 3.6548C144.526 3.93613 144.587 4.27747 144.587 4.68013V8.5628H142.982V7.84547C142.806 8.0888 142.58 8.28947 142.304 8.4488C142.026 8.6088 141.653 8.68813 141.182 8.68813ZM146.135 2.6074H147.787V3.55273C147.938 3.25673 148.174 3.00207 148.492 2.7894C148.811 2.57807 149.221 2.4714 149.722 2.4714C150.018 2.4714 150.287 2.51673 150.531 2.6074C150.773 2.69873 150.985 2.8354 151.169 3.0174C151.343 3.2074 151.479 3.44873 151.577 3.74007C151.677 4.03273 151.726 4.37607 151.726 4.77073V8.56273H150.075V5.01007C150.075 4.60007 149.991 4.29873 149.824 4.1054C149.657 3.9114 149.392 3.81473 149.027 3.81473C148.671 3.81473 148.374 3.9234 148.139 4.1394C147.904 4.3554 147.787 4.68407 147.787 5.12407V8.56273H146.135V2.6074ZM80.4224 22.8756C80.7637 22.8756 81.0731 22.8109 81.3504 22.6816C81.6277 22.5529 81.8644 22.3703 82.0617 22.1356C82.2517 21.9076 82.3997 21.6263 82.5057 21.2923C82.6124 20.9589 82.6651 20.5869 82.6651 20.1769V20.0856C82.6651 19.6916 82.6144 19.3309 82.5117 19.0036C82.4091 18.6783 82.2631 18.3963 82.0731 18.1616C81.8757 17.9263 81.6364 17.7436 81.3557 17.6143C81.0751 17.4863 80.7557 17.4216 80.3997 17.4216C80.0424 17.4216 79.7257 17.4843 79.4491 17.6089C79.1717 17.7343 78.9351 17.9109 78.7371 18.1389C78.5397 18.3743 78.3897 18.6563 78.2877 18.9869C78.1851 19.3176 78.1337 19.6869 78.1337 20.0969V20.1883C78.1337 20.6056 78.1897 20.9796 78.3037 21.3096C78.4184 21.6396 78.5777 21.9183 78.7824 22.1463C78.9797 22.3823 79.2184 22.5623 79.5004 22.6869C79.7811 22.8129 80.0884 22.8756 80.4224 22.8756ZM80.3884 24.3443C79.7504 24.3443 79.1737 24.2396 78.6577 24.0309C78.1411 23.8223 77.7044 23.5323 77.3484 23.1596C76.9837 22.7956 76.7031 22.3596 76.5057 21.8503C76.3077 21.3416 76.2097 20.7916 76.2097 20.1989V20.1083C76.2097 19.5016 76.3137 18.9436 76.5217 18.4349C76.7317 17.9263 77.0251 17.4896 77.4051 17.1256C77.7764 16.7609 78.2171 16.4763 78.7257 16.2716C79.2344 16.0663 79.7924 15.9643 80.3997 15.9643C81.0151 15.9643 81.5777 16.0629 82.0904 16.2603C82.6031 16.4576 83.0451 16.7343 83.4171 17.0916C83.7811 17.4556 84.0677 17.8876 84.2764 18.3889C84.4857 18.8896 84.5897 19.4476 84.5897 20.0629V20.1536C84.5897 20.7616 84.489 21.3209 84.2877 21.8343C84.0871 22.3463 83.8037 22.7883 83.4397 23.1596C83.0751 23.5323 82.6351 23.8223 82.1191 24.0309C81.6031 24.2396 81.0257 24.3443 80.3884 24.3443ZM88.9732 23.0576C89.4299 23.0576 89.7779 22.9076 90.0212 22.6069C90.2645 22.3056 90.3852 21.8623 90.3852 21.2756V21.1836C90.3852 20.5749 90.2532 20.1223 89.9872 19.8256C89.7212 19.5289 89.3792 19.3796 88.9619 19.3796C88.5292 19.3796 88.1785 19.5296 87.9085 19.8309C87.6392 20.1316 87.5052 20.5829 87.5052 21.1836V21.2756C87.5052 21.8776 87.6352 22.3243 87.8979 22.6176C88.1592 22.9109 88.5178 23.0576 88.9732 23.0576ZM85.9105 18.2636H87.5619V19.1976C87.7285 18.9096 87.9778 18.6583 88.3078 18.4463C88.6378 18.2343 89.0225 18.1276 89.4632 18.1276C89.8272 18.1276 90.1672 18.1936 90.4825 18.3263C90.7965 18.4596 91.0719 18.6549 91.3079 18.9129C91.5425 19.1716 91.7272 19.4896 91.8605 19.8689C91.9919 20.2496 92.0592 20.6856 92.0592 21.1783V21.2703C92.0592 21.7636 91.9919 22.2003 91.8605 22.5796C91.7272 22.9589 91.5465 23.2783 91.3192 23.5356C91.0839 23.8016 90.8085 24.0029 90.4932 24.1389C90.1785 24.2763 89.8352 24.3443 89.4632 24.3443C88.9999 24.3443 88.6052 24.2436 88.2792 24.0429C87.9525 23.8416 87.7132 23.5969 87.5619 23.3076V26.2456H85.9105V18.2636ZM97.2967 20.5983C97.2661 20.1429 97.1414 19.8069 96.9214 19.5903C96.7007 19.3743 96.3941 19.2656 95.9987 19.2656C95.6267 19.2656 95.3214 19.3823 95.0821 19.6129C94.8427 19.8449 94.6934 20.1729 94.6327 20.5983H97.2967ZM96.0441 24.3443C95.5961 24.3443 95.1827 24.2763 94.8034 24.1389C94.4227 24.0029 94.0974 23.8016 93.8241 23.5356C93.5427 23.2783 93.3247 22.9623 93.1694 22.5909C93.0134 22.2189 92.9361 21.7936 92.9361 21.3156V21.2243C92.9361 20.7536 93.0134 20.3283 93.1694 19.9489C93.3247 19.5696 93.5427 19.2429 93.8241 18.9703C94.0974 18.7043 94.4201 18.4976 94.7914 18.3489C95.1634 18.2009 95.5654 18.1276 95.9987 18.1276C96.3861 18.1276 96.7547 18.1856 97.1034 18.3043C97.4514 18.4216 97.7594 18.6016 98.0254 18.8449C98.2907 19.0869 98.5041 19.4009 98.6634 19.7836C98.8227 20.1676 98.9021 20.6249 98.9021 21.1563V21.6116H94.6094C94.6327 22.1123 94.7707 22.4976 95.0254 22.7669C95.2801 23.0369 95.6347 23.1716 96.0894 23.1716C96.4774 23.1716 96.7674 23.0963 96.9607 22.9436C97.1547 22.7923 97.2781 22.5909 97.3314 22.3403H98.8907C98.7921 22.9856 98.4981 23.4809 98.0087 23.8263C97.5187 24.1716 96.8641 24.3443 96.0441 24.3443ZM100.121 18.2637H101.772V19.209C101.924 18.913 102.159 18.6583 102.477 18.4457C102.796 18.2343 103.206 18.1277 103.708 18.1277C104.004 18.1277 104.273 18.173 104.516 18.2637C104.759 18.355 104.97 18.4917 105.154 18.6737C105.328 18.8637 105.464 19.105 105.563 19.3963C105.662 19.689 105.711 20.0323 105.711 20.4277V24.219H104.06V20.6663C104.06 20.2563 103.976 19.955 103.81 19.7617C103.643 19.5677 103.378 19.471 103.012 19.471C102.656 19.471 102.36 19.5797 102.124 19.7957C101.889 20.0117 101.772 20.3403 101.772 20.7803V24.219H100.121V18.2637ZM110.254 24.3441C109.692 24.3441 109.208 24.2814 108.797 24.1567C108.387 24.0314 108.046 23.8507 107.772 23.6161C107.499 23.3801 107.29 23.0994 107.146 22.7727C107.002 22.4467 106.918 22.0787 106.896 21.6687H108.66C108.684 21.8507 108.721 22.0234 108.774 22.1861C108.827 22.3494 108.914 22.4887 109.036 22.6021C109.157 22.7234 109.315 22.8207 109.509 22.8921C109.702 22.9647 109.951 23.0007 110.254 23.0007C110.664 23.0007 110.99 22.9001 111.234 22.6987C111.476 22.4967 111.598 22.2361 111.598 21.9167C111.598 21.7567 111.574 21.6207 111.524 21.5061C111.475 21.3921 111.393 21.2934 111.279 21.2094C111.158 21.1334 110.998 21.0667 110.8 21.0101C110.603 20.9527 110.356 20.9014 110.061 20.8561C109.538 20.7881 109.091 20.6947 108.723 20.5774C108.354 20.4594 108.053 20.3021 107.818 20.1047C107.574 19.9147 107.398 19.6801 107.288 19.3994C107.178 19.1194 107.123 18.7814 107.123 18.3867C107.123 18.0387 107.193 17.7161 107.334 17.4201C107.474 17.1241 107.674 16.8661 107.932 16.6467C108.19 16.4341 108.501 16.2674 108.866 16.1454C109.23 16.0247 109.636 15.9641 110.084 15.9641C111.002 15.9641 111.722 16.1654 112.241 16.5701C112.762 16.9747 113.06 17.5807 113.135 18.3887H111.438C111.385 18.0247 111.245 17.7534 111.018 17.5754C110.79 17.3967 110.478 17.3074 110.084 17.3074C109.674 17.3074 109.368 17.3927 109.167 17.5641C108.966 17.7354 108.866 17.9581 108.866 18.2321C108.866 18.3761 108.886 18.5034 108.928 18.6141C108.97 18.7241 109.047 18.8167 109.161 18.8934C109.268 18.9767 109.419 19.0494 109.617 19.1101C109.814 19.1707 110.068 19.2241 110.38 19.2701C110.873 19.3307 111.306 19.4161 111.678 19.5267C112.05 19.6361 112.361 19.7827 112.611 19.9661C112.862 20.1554 113.05 20.3954 113.175 20.6834C113.3 20.9727 113.363 21.3261 113.363 21.7441C113.363 22.1087 113.291 22.4494 113.146 22.7647C113.002 23.0807 112.797 23.3527 112.532 23.5801C112.266 23.8161 111.94 24.0021 111.552 24.1387C111.166 24.2761 110.733 24.3441 110.254 24.3441ZM116.859 24.333C116.228 24.333 115.75 24.175 115.424 23.8603C115.097 23.5457 114.934 23.0763 114.934 22.4537V19.437H114.172V18.2637H114.934V16.9777H116.574V18.2637H117.827V19.437H116.574V22.3057C116.574 22.541 116.629 22.7177 116.739 22.835C116.849 22.9537 117.014 23.0117 117.234 23.0117C117.355 23.0117 117.468 23.003 117.57 22.9837C117.673 22.9643 117.769 22.9363 117.861 22.8977V24.173C117.747 24.211 117.606 24.2477 117.439 24.2817C117.272 24.3157 117.079 24.333 116.859 24.333ZM119.113 18.2637H120.765V19.403C120.953 19.0003 121.201 18.697 121.505 18.4917C121.807 18.287 122.202 18.1803 122.688 18.173V19.7097C122.073 19.7023 121.599 19.8123 121.265 20.0403C120.931 20.2683 120.765 20.6663 120.765 21.2357V24.219H119.113V18.2637ZM127.79 20.5983C127.759 20.1429 127.634 19.8069 127.414 19.5903C127.193 19.3743 126.886 19.2656 126.492 19.2656C126.12 19.2656 125.814 19.3823 125.575 19.6129C125.336 19.8449 125.186 20.1729 125.125 20.5983H127.79ZM126.536 24.3443C126.089 24.3443 125.676 24.2763 125.296 24.1389C124.916 24.0029 124.59 23.8016 124.317 23.5356C124.035 23.2783 123.817 22.9623 123.662 22.5909C123.506 22.2189 123.428 21.7936 123.428 21.3156V21.2243C123.428 20.7536 123.506 20.3283 123.662 19.9489C123.817 19.5696 124.035 19.2429 124.317 18.9703C124.59 18.7043 124.913 18.4976 125.284 18.3489C125.656 18.2009 126.058 18.1276 126.492 18.1276C126.878 18.1276 127.247 18.1856 127.596 18.3043C127.944 18.4216 128.252 18.6016 128.518 18.8449C128.783 19.0869 128.996 19.4009 129.156 19.7836C129.315 20.1676 129.395 20.6249 129.395 21.1563V21.6116H125.102C125.125 22.1123 125.264 22.4976 125.518 22.7669C125.772 23.0369 126.127 23.1716 126.582 23.1716C126.97 23.1716 127.26 23.0963 127.453 22.9436C127.647 22.7923 127.77 22.5909 127.824 22.3403H129.384C129.284 22.9856 128.99 23.4809 128.501 23.8263C128.011 24.1716 127.357 24.3443 126.536 24.3443ZM134.61 20.5983C134.579 20.1429 134.455 19.8069 134.235 19.5903C134.013 19.3743 133.707 19.2656 133.312 19.2656C132.94 19.2656 132.634 19.3823 132.395 19.6129C132.156 19.8449 132.006 20.1729 131.945 20.5983H134.61ZM133.357 24.3443C132.909 24.3443 132.496 24.2763 132.117 24.1389C131.736 24.0029 131.41 23.8016 131.137 23.5356C130.856 23.2783 130.637 22.9623 130.482 22.5909C130.326 22.2189 130.249 21.7936 130.249 21.3156V21.2243C130.249 20.7536 130.326 20.3283 130.482 19.9489C130.637 19.5696 130.856 19.2429 131.137 18.9703C131.41 18.7043 131.733 18.4976 132.105 18.3489C132.477 18.2009 132.879 18.1276 133.312 18.1276C133.699 18.1276 134.067 18.1856 134.416 18.3043C134.765 18.4216 135.073 18.6016 135.339 18.8449C135.604 19.0869 135.817 19.4009 135.977 19.7836C136.135 20.1676 136.215 20.6249 136.215 21.1563V21.6116H131.923C131.945 22.1123 132.084 22.4976 132.338 22.7669C132.593 23.0369 132.948 23.1716 133.403 23.1716C133.79 23.1716 134.081 23.0963 134.273 22.9436C134.467 22.7923 134.591 22.5909 134.644 22.3403H136.204C136.105 22.9856 135.811 23.4809 135.321 23.8263C134.832 24.1716 134.177 24.3443 133.357 24.3443ZM139.608 24.333C138.978 24.333 138.5 24.175 138.174 23.8603C137.847 23.5457 137.683 23.0763 137.683 22.4537V19.437H136.921V18.2637H137.683V16.9777H139.324V18.2637H140.576V19.437H139.324V22.3057C139.324 22.541 139.379 22.7177 139.489 22.835C139.598 22.9537 139.763 23.0117 139.984 23.0117C140.105 23.0117 140.217 23.003 140.319 22.9837C140.423 22.9643 140.519 22.9363 140.611 22.8977V24.173C140.497 24.211 140.356 24.2477 140.189 24.2817C140.021 24.3157 139.829 24.333 139.608 24.333Z" fill="white"/>
<path fill-rule="evenodd" clip-rule="evenodd" d="M142.011 16.0775H144.447L146.349 21.145L148.227 16.0775H150.618V24.2192H148.785V18.5025L146.53 24.2192H145.927L143.662 18.5025V24.2192H142.011V16.0775Z" fill="white"/>
<path fill-rule="evenodd" clip-rule="evenodd" d="M154.41 23.2057C154.775 23.2057 155.079 23.1117 155.326 22.925C155.573 22.737 155.697 22.475 155.697 22.139V21.6344H155.059C154.581 21.6344 154.209 21.6957 153.943 21.8177C153.677 21.9404 153.544 22.1617 153.544 22.483C153.544 22.705 153.613 22.8804 153.749 23.0104C153.887 23.1404 154.107 23.2057 154.41 23.2057ZM153.921 24.3444C153.647 24.3444 153.391 24.3097 153.151 24.2417C152.913 24.173 152.702 24.067 152.52 23.923C152.338 23.779 152.193 23.595 152.087 23.3704C151.981 23.147 151.927 22.879 151.927 22.5677C151.927 22.219 152.004 21.923 152.156 21.6797C152.307 21.437 152.52 21.2397 152.793 21.0877C153.066 20.9357 153.393 20.8264 153.772 20.7577C154.151 20.689 154.569 20.655 155.025 20.655H155.697V20.4157C155.697 20.059 155.63 19.7877 155.497 19.6017C155.365 19.4157 155.108 19.323 154.729 19.323C154.403 19.323 154.161 19.399 154.006 19.551C153.85 19.7024 153.754 19.9077 153.715 20.165H152.156C152.178 19.8164 152.263 19.5124 152.411 19.255C152.56 18.9964 152.751 18.7837 152.987 18.617C153.222 18.4504 153.497 18.3264 153.812 18.247C154.127 18.167 154.467 18.1277 154.831 18.1277C155.196 18.1277 155.53 18.167 155.834 18.247C156.137 18.3264 156.403 18.4537 156.63 18.6277C156.85 18.803 157.021 19.031 157.143 19.311C157.263 19.5924 157.325 19.9337 157.325 20.3364V24.219H155.72V23.5017C155.545 23.745 155.319 23.9457 155.042 24.105C154.765 24.265 154.391 24.3444 153.921 24.3444ZM161.937 23.0576C162.393 23.0576 162.741 22.9076 162.985 22.6069C163.227 22.3056 163.349 21.8622 163.349 21.2756V21.1836C163.349 20.5749 163.216 20.1222 162.951 19.8256C162.685 19.5289 162.343 19.3796 161.925 19.3796C161.493 19.3796 161.142 19.5296 160.872 19.8309C160.603 20.1316 160.469 20.5829 160.469 21.1836V21.2756C160.469 21.8776 160.599 22.3242 160.861 22.6176C161.123 22.9109 161.481 23.0576 161.937 23.0576ZM158.874 18.2636H160.525V19.1976C160.692 18.9096 160.941 18.6582 161.271 18.4462C161.601 18.2342 161.986 18.1276 162.427 18.1276C162.791 18.1276 163.131 18.1936 163.446 18.3262C163.76 18.4596 164.035 18.6549 164.271 18.9129C164.506 19.1716 164.69 19.4896 164.823 19.8689C164.955 20.2496 165.023 20.6856 165.023 21.1782V21.2702C165.023 21.7636 164.955 22.2002 164.823 22.5796C164.69 22.9589 164.51 23.2782 164.283 23.5356C164.047 23.8016 163.772 24.0029 163.457 24.1389C163.142 24.2762 162.799 24.3442 162.427 24.3442C161.963 24.3442 161.568 24.2436 161.243 24.0429C160.916 23.8416 160.677 23.5969 160.525 23.3076V26.2456H158.874V18.2636Z" fill="white"/>
<path fill-rule="evenodd" clip-rule="evenodd" d="M79.2925 33.1683H77.095V31.7333H83.3458V33.1683H81.1483V39.8749H79.2925V33.1683Z" fill="white"/>
<path fill-rule="evenodd" clip-rule="evenodd" d="M87.6274 36.2539C87.5968 35.7985 87.4714 35.4625 87.2514 35.2465C87.0308 35.0305 86.7241 34.9219 86.3294 34.9219C85.9568 34.9219 85.6514 35.0379 85.4128 35.2692C85.1728 35.5005 85.0234 35.8285 84.9628 36.2539H87.6274ZM86.3741 39.9999C85.9261 39.9999 85.5128 39.9319 85.1341 39.7952C84.7534 39.6585 84.4274 39.4572 84.1541 39.1919C83.8728 38.9345 83.6548 38.6185 83.4994 38.2465C83.3434 37.8752 83.2661 37.4492 83.2661 36.9712V36.8799C83.2661 36.4092 83.3434 35.9845 83.4994 35.6045C83.6548 35.2252 83.8728 34.8992 84.1541 34.6259C84.4274 34.3599 84.7501 34.1532 85.1214 34.0052C85.4934 33.8572 85.8961 33.7832 86.3294 33.7832C86.7161 33.7832 87.0848 33.8419 87.4334 33.9605C87.7821 34.0772 88.0901 34.2579 88.3554 34.5005C88.6208 34.7432 88.8341 35.0565 88.9934 35.4392C89.1528 35.8232 89.2321 36.2805 89.2321 36.8125V37.2679H84.9401C84.9628 37.7679 85.1008 38.1539 85.3554 38.4232C85.6101 38.6925 85.9648 38.8272 86.4194 38.8272C86.8074 38.8272 87.0974 38.7519 87.2908 38.5999C87.4848 38.4479 87.6081 38.2465 87.6614 37.9965H89.2208C89.1221 38.6412 88.8281 39.1365 88.3388 39.4825C87.8488 39.8272 87.1948 39.9999 86.3741 39.9999ZM92.6034 38.8619C92.9674 38.8619 93.2727 38.7673 93.5194 38.5806C93.766 38.3933 93.89 38.1313 93.89 37.7946V37.2906H93.252C92.7734 37.2906 92.4014 37.3513 92.136 37.4739C91.87 37.5966 91.7374 37.8179 91.7374 38.1386C91.7374 38.3606 91.806 38.5366 91.9427 38.6666C92.0794 38.7959 92.2994 38.8619 92.6034 38.8619ZM92.1134 39.9999C91.84 39.9999 91.584 39.9659 91.3447 39.8979C91.1054 39.8286 90.8947 39.7233 90.7127 39.5786C90.5307 39.4346 90.386 39.2506 90.28 39.0266C90.1734 38.8026 90.1207 38.5353 90.1207 38.2239C90.1207 37.8753 90.1967 37.5786 90.3487 37.3353C90.5007 37.0933 90.7127 36.8959 90.986 36.7433C91.2587 36.5919 91.586 36.4819 91.9654 36.4133C92.3447 36.3453 92.762 36.3113 93.2174 36.3113H93.89V36.0719C93.89 35.7146 93.8227 35.4439 93.69 35.2579C93.5574 35.0719 93.3007 34.9793 92.922 34.9793C92.5954 34.9793 92.3547 35.0546 92.1987 35.2073C92.0427 35.3579 91.9467 35.5633 91.908 35.8206H90.3487C90.3707 35.4719 90.456 35.1686 90.6047 34.9106C90.7527 34.6526 90.9447 34.4393 91.18 34.2726C91.4147 34.1059 91.69 33.9826 92.0054 33.9033C92.3194 33.8226 92.6594 33.7833 93.0247 33.7833C93.3887 33.7833 93.7227 33.8226 94.0267 33.9033C94.3294 33.9826 94.5954 34.1093 94.8227 34.2839C95.0434 34.4593 95.214 34.6866 95.336 34.9666C95.4567 35.2486 95.518 35.5899 95.518 35.9919V39.8753H93.9127V39.1573C93.7374 39.4013 93.5114 39.6013 93.2347 39.7613C92.9574 39.9206 92.584 39.9999 92.1134 39.9999ZM97.0662 33.9199H98.7176V34.8306C98.8689 34.5499 99.0982 34.3053 99.4062 34.0966C99.7136 33.8879 100.091 33.7833 100.539 33.7833C100.934 33.7833 101.274 33.8673 101.558 34.0339C101.843 34.2006 102.057 34.4619 102.202 34.8199C102.444 34.4553 102.744 34.1913 103.101 34.0279C103.458 33.8646 103.826 33.7833 104.206 33.7833C104.479 33.7833 104.736 33.8273 104.974 33.9139C105.214 34.0019 105.424 34.1359 105.606 34.3186C105.78 34.5086 105.917 34.7473 106.016 35.0359C106.115 35.3239 106.164 35.6659 106.164 36.0606V39.8753H104.524V36.2339C104.524 35.8466 104.442 35.5646 104.279 35.3893C104.116 35.2139 103.886 35.1273 103.59 35.1273C103.272 35.1273 103 35.2279 102.776 35.4293C102.552 35.6306 102.441 35.9373 102.441 36.3479V39.8753H100.802V36.2339C100.802 35.8466 100.718 35.5646 100.55 35.3893C100.384 35.2139 100.156 35.1273 99.8669 35.1273C99.5489 35.1273 99.2769 35.2279 99.0529 35.4293C98.8296 35.6306 98.7176 35.9373 98.7176 36.3479V39.8753H97.0662V33.9199Z" fill="white"/>
</g>
<defs>
<clipPath id="clip0_15013_68249">
<rect width="66.6667" height="40" fill="white"/>
</clipPath>
<clipPath id="clip1_15013_68249">
<rect width="90" height="40" fill="white" transform="translate(75.8333)"/>
</clipPath>
</defs>
</svg>
